<svg width="105" height="128" fill="none" xmlns="http://www.w3.org/2000/svg"><path fill-rule="evenodd" clip-rule="evenodd" d="M5.112 5.112A17.454 17.454 0 0117.454 0H61.44C66 0 70.38 1.786 73.641 4.975l25.832 25.261a17.46 17.46 0 015.254 12.48v67.829A17.457 17.457 0 0187.273 128H17.454A17.456 17.456 0 010 110.545v-93.09c0-4.63 1.839-9.07 5.112-12.343zm12.342 6.524a5.818 5.818 0 00-5.818 5.819v93.09a5.82 5.82 0 005.819 5.819h69.818a5.819 5.819 0 005.818-5.819v-64H75.636a17.455 17.455 0 01-17.454-17.454V11.636H17.455zm52.364 5.875v11.58a5.818 5.818 0 005.818 5.818H87.61L69.82 17.511zM29.091 69.818A5.818 5.818 0 0134.909 64h34.91a5.818 5.818 0 010 11.636h-34.91a5.818 5.818 0 01-5.818-5.818zm0 23.273a5.818 5.818 0 015.818-5.818h17.455a5.818 5.818 0 010 11.636H34.909a5.818 5.818 0 01-5.818-5.818z" fill="#F8F8F8"/></svg>