<svg width="128" height="128" fill="none" xmlns="http://www.w3.org/2000/svg"><path fill-rule="evenodd" clip-rule="evenodd" d="M29.09 11.636a17.454 17.454 0 00-17.454 17.455v69.818a17.454 17.454 0 0015.034 17.286L74.391 63.7a17.459 17.459 0 0119.927-4.243 17.45 17.45 0 015.854 4.19l16.192 17.657V29.091a17.452 17.452 0 00-17.455-17.455H29.091zM128 29.091A29.09 29.09 0 0098.91 0H29.09A29.09 29.09 0 000 29.09v69.82A29.09 29.09 0 0029.09 128h70.593A28.314 28.314 0 00128 99.683V29.09zM91.595 71.51a5.82 5.82 0 00-8.593.016l-40.76 44.837H98.91c4.629 0 9.069-1.839 12.342-5.113a17.452 17.452 0 005.113-12.342c0-.16-.008-.264-.015-.325a4.79 4.79 0 00-.262-.337c-.23-.274-.5-.57-.928-1.038l-.116-.128-23.448-25.57zM43.636 34.908a8.727 8.727 0 100 17.455 8.727 8.727 0 000-17.455zm-20.363 8.727c0-11.246 9.117-20.363 20.363-20.363C54.883 23.273 64 32.39 64 43.636 64 54.883 54.883 64 43.636 64c-11.246 0-20.363-9.117-20.363-20.364z" fill="#F8F8F8"/></svg>