<svg width="128" height="128" fill="none" xmlns="http://www.w3.org/2000/svg"><path fill-rule="evenodd" clip-rule="evenodd" d="M64 11.636C35.08 11.636 11.636 35.08 11.636 64c0 28.92 23.444 52.364 52.364 52.364 28.92 0 52.364-23.444 52.364-52.364 0-28.92-23.444-52.364-52.364-52.364zM0 64C0 28.654 28.654 0 64 0c35.346 0 64 28.654 64 64 0 35.346-28.654 64-64 64-35.346 0-64-28.654-64-64zm49.618-28.403a5.818 5.818 0 015.973.29l34.91 23.272a5.818 5.818 0 010 9.682L55.59 92.114a5.818 5.818 0 01-9.046-4.841V40.727a5.818 5.818 0 013.073-5.13z" fill="#F8F8F8"/></svg>