<svg width="12" height="14" fill="none" xmlns="http://www.w3.org/2000/svg"><path fill-rule="evenodd" clip-rule="evenodd" d="M9.333 2.667V2A1.333 1.333 0 008 .667H4A1.333 1.333 0 002.667 2v.667h-2A.667.667 0 00.667 4h.666v7.333a2 2 0 002 2h5.334a2 2 0 002-2V4h.666a.667.667 0 100-1.333h-2zM8 2H4v.667h4V2zm1.333 2H2.667v7.333a.667.667 0 00.666.667h5.334a.667.667 0 00.666-.667V4z" fill="#0E0E0E" fill-opacity=".35"/><path d="M4 5.333h1.333v5.333H4V5.333zm2.667 0H8v5.333H6.667V5.333z" fill="#0E0E0E" fill-opacity=".35"/></svg>