<svg width="12" height="12" fill="none" xmlns="http://www.w3.org/2000/svg"><path fill-rule="evenodd" clip-rule="evenodd" d="M8.917 1.917v-.584A1.167 1.167 0 007.75.167h-3.5a1.167 1.167 0 00-1.167 1.166v.584h-1.75a.583.583 0 000 1.166h.584V9.5a1.75 1.75 0 001.75 1.75h4.666a1.75 1.75 0 001.75-1.75V3.083h.584a.583.583 0 100-1.166h-1.75zM7.75 1.333h-3.5v.584h3.5v-.584zm1.167 1.75H3.083V9.5a.583.583 0 00.584.583h4.666a.583.583 0 00.584-.583V3.083z" fill="#0E0E0E" fill-opacity=".35"/><path d="M4.25 4.25h1.167v4.667H4.25V4.25zm2.333 0H7.75v4.667H6.583V4.25z" fill="#0E0E0E" fill-opacity=".35"/></svg>