<svg width="36" height="36" fill="none" xmlns="http://www.w3.org/2000/svg"><path d="M18.043.085C27.96.085 36 8.125 36 18.043 36 27.96 27.96 36 18.042 36 8.125 36 .085 27.96.085 18.043.085 8.125 8.125.085 18.043.085z" fill="#DFE5E7"/><path d="M29.473 29.142a10.672 10.672 0 00-.794-1.062 11.838 11.838 0 00-1.546-1.528 12.31 12.31 0 00-2.749-1.712l-.03-.014C22.69 24.072 20.6 23.547 18 23.547s-4.69.525-6.354 1.279c-.057.026-.11.054-.167.08-.361.17-.714.357-1.058.56a12.094 12.094 0 00-3.1 2.614 11.421 11.421 0 00-.794 1.062 9.56 9.56 0 00-.245.395l-.018.03a8.133 8.133 0 00-.182.326c-.095.181-.139.285-.139.285v.068a17.153 17.153 0 0012.048 4.922c4.7 0 8.959-1.886 12.065-4.941v-.05s-.105-.245-.338-.64a9.893 9.893 0 00-.245-.395zM18 21.312a6.77 6.77 0 001.92-.278 6.172 6.172 0 001.914-.956 6.099 6.099 0 002.022-2.601 6.287 6.287 0 00.415-1.52 6.84 6.84 0 00-.207-2.907 6.228 6.228 0 00-.619-1.409 6.1 6.1 0 00-2.656-2.403 6.302 6.302 0 00-1.485-.484A6.77 6.77 0 0018 8.629c-3.593 0-6.341 2.748-6.341 6.341s2.748 6.341 6.341 6.341z" fill="#fff"/></svg>