<svg width="139" height="20" fill="none" xmlns="http://www.w3.org/2000/svg"><path fill="url(#paint0_linear)" d="M25.574 8.219h24.918v2.623H25.574z"/><path d="M6.67 15.76L.247.148h5.33l4.03 10.744L13.09.148h5.204l3.568 10.429L25.807.148h4.805L24.296 15.76h-4.931L15.608 5.31l-3.547 10.45H6.67zM50.168 3.841h-6.715V.148h18.381v3.693H55.1V15.76h-4.931V3.841zm20.935 6.547l-4.47.693c-.601.098-1.035.216-1.3.356-.266.14-.4.371-.4.693v.02c0 .155.029.309.085.463.07.153.182.293.336.42.167.111.377.209.63.293.265.07.6.105 1.006.105.63 0 1.196-.077 1.7-.231a4.35 4.35 0 001.28-.608c.364-.252.643-.54.84-.86.195-.323.293-.651.293-.987v-.357zm.126 3.82a3.588 3.588 0 01-.567.524 5.327 5.327 0 01-1.007.587c-.406.182-.91.336-1.51.462-.588.126-1.302.189-2.14.189h-.274c-.951 0-1.762-.098-2.434-.294-.657-.21-1.196-.483-1.616-.818a3.31 3.31 0 01-.923-1.175 3.701 3.701 0 01-.273-1.406v-.147c0-1.035.364-1.819 1.092-2.35.74-.532 1.958-.875 3.65-1.029l5.163-.482c.265-.028.447-.084.545-.168.112-.098.168-.238.168-.42a.707.707 0 00-.084-.314c-.042-.112-.16-.21-.357-.294-.195-.098-.49-.175-.88-.231-.393-.056-.931-.084-1.617-.084h-.105c-.699 0-1.245.049-1.636.147-.392.098-.686.217-.882.357-.181.126-.3.258-.356.398-.042.14-.07.26-.084.357h-4.344v-.042c0-.252.021-.518.063-.797.042-.294.133-.58.273-.86.154-.28.378-.546.671-.798.294-.266.686-.497 1.175-.692.504-.21 1.127-.371 1.868-.483.741-.126 1.637-.189 2.686-.189h1.154c1.637 0 2.917.112 3.84.336.937.224 1.637.517 2.098.881.462.35.749.742.86 1.175.113.434.169.854.169 1.26v4.322c0 .168.035.308.105.42.083.097.244.146.482.146h.609v3.064h-3.798a1.9 1.9 0 01-1.175-.378c-.322-.252-.525-.643-.609-1.175zm11.235 1.552h-4.68V4.47h4.638v1.994c.098-.154.259-.356.483-.608a4.99 4.99 0 01.902-.735 5.047 5.047 0 011.322-.63c.532-.181 1.154-.272 1.868-.272h.23c.812 0 1.511.126 2.099.378.587.252 1.063.601 1.427 1.049.363.448.63.98.797 1.595.182.615.273 1.287.273 2.014v.65H87.31c0-.363-.042-.706-.126-1.028a2.153 2.153 0 00-.42-.86 1.806 1.806 0 00-.734-.587c-.307-.154-.678-.231-1.112-.231h-.02a2.315 2.315 0 00-1.805.818 2.69 2.69 0 00-.483.881 3.514 3.514 0 00-.147 1.029v5.833zm18.717-8.624c-.755 0-1.385.077-1.888.23-.49.14-.882.33-1.175.567a1.91 1.91 0 00-.63.797 2.686 2.686 0 00-.168.924v.105c0 .321.063.643.189.965.14.308.357.588.65.84.308.237.707.433 1.197.587.503.154 1.112.23 1.825.23h.126c.741 0 1.378-.07 1.91-.21.545-.153.986-.349 1.321-.587.35-.252.609-.531.777-.84a2.07 2.07 0 00.252-.964v-.084a1.99 1.99 0 00-.252-.966c-.168-.307-.427-.58-.777-.818-.349-.238-.797-.427-1.342-.566-.532-.14-1.162-.21-1.889-.21h-.126zm-.252 12.716c-1.175 0-2.182-.077-3.021-.231-.84-.154-1.546-.357-2.12-.608-.573-.252-1.028-.532-1.364-.84a4.386 4.386 0 01-.776-.902 2.922 2.922 0 01-.336-.84 3.892 3.892 0 01-.063-.608v-.063h4.722c.014.07.056.16.126.273.084.126.244.245.482.357.252.111.616.21 1.091.293.476.084 1.112.126 1.91.126h.063c.867 0 1.567-.105 2.098-.315.532-.195.937-.447 1.217-.755a2.28 2.28 0 00.567-1.05 4.65 4.65 0 00.147-1.132c-.14.126-.343.287-.609.482-.252.196-.594.385-1.028.567-.42.168-.951.322-1.595.462-.629.125-1.385.188-2.266.188h-.252c-1.329 0-2.462-.14-3.4-.42-.922-.293-1.678-.685-2.266-1.174-.587-.504-1.02-1.078-1.3-1.721a5.49 5.49 0 01-.4-2.077v-.42c0-.686.12-1.343.358-1.973a4.194 4.194 0 011.154-1.657c.531-.49 1.224-.882 2.077-1.175.867-.294 1.93-.441 3.19-.441h.44c.937 0 1.742.07 2.413.21.672.126 1.238.287 1.7.482.462.182.832.378 1.112.588.28.196.497.364.651.504V4.47h4.7v9.233c0 .335-.035.727-.105 1.175-.07.433-.21.874-.42 1.322a5.31 5.31 0 01-.839 1.343c-.364.433-.839.818-1.427 1.154-.587.35-1.308.63-2.161.839-.84.21-1.833.315-2.98.315h-1.49zM120.1 6.779c-1.175 0-2.049.168-2.623.504-.573.335-.951.804-1.133 1.406h7.554c-.154-.602-.524-1.07-1.112-1.406-.587-.336-1.476-.504-2.665-.504h-.021zm8.457 5.015c0 .378-.091.819-.273 1.322-.168.49-.525.958-1.07 1.406-.546.434-1.329.804-2.35 1.112-1.022.294-2.372.44-4.05.44h-1.196c-1.511 0-2.777-.16-3.798-.482-1.008-.322-1.819-.748-2.434-1.28-.616-.545-1.057-1.161-1.322-1.846a6.032 6.032 0 01-.399-2.162v-.461c0-.728.119-1.427.357-2.099.251-.685.671-1.294 1.259-1.825.601-.532 1.406-.959 2.413-1.28 1.007-.322 2.273-.483 3.798-.483h1.28c1.65 0 2.986.189 4.008.567 1.035.377 1.832.86 2.392 1.447.573.588.958 1.246 1.154 1.973a7.9 7.9 0 01.294 2.098v.777h-12.36c.14.657.518 1.189 1.133 1.595.616.405 1.567.608 2.854.608h.021c.77 0 1.392-.063 1.868-.189.475-.126.846-.266 1.112-.42.266-.167.44-.328.524-.482.098-.168.154-.287.168-.357h4.617v.021zm5.505 3.966c-1.021 0-1.741-.287-2.161-.86-.42-.588-.63-1.371-.63-2.35V7.575h-2.203V4.471h2.203V1.176h4.617v3.295h2.224v3.105h-2.224v4.092c0 .308.056.553.168.735.112.167.37.251.776.251h1.28v3.106h-4.05z" fill="#0E0E0E"/><defs><linearGradient id="paint0_linear" x1="25.574" y1="9.694" x2="50.492" y2="9.694" gradientUnits="userSpaceOnUse"><stop stop-color="#20B038"/><stop offset="1" stop-color="#60D66A"/></linearGradient></defs></svg>