<svg width="18" height="18" fill="none" xmlns="http://www.w3.org/2000/svg"><g clip-path="url(#clip0)" fill="#0E0E0E" fill-opacity=".35"><path d="M16.628.247a.843.843 0 00-1.194 0L11.88 3.801A9.917 9.917 0 009 3.376c-3.925 0-7.328 2.286-9 5.625a10.323 10.323 0 003.04 3.64L.246 15.437a.844.844 0 001.193 1.194L16.625 1.442a.843.843 0 000-1.193l.003-.002zM7.313 5.625A1.688 1.688 0 018.91 6.771l-2.14 2.14a1.688 1.688 0 01.542-3.286zM1.936 9a8.543 8.543 0 012.835-2.77 4.479 4.479 0 00-.27 1.54c0 .966.303 1.859.82 2.591l-1.07 1.071A8.578 8.578 0 011.935 9zM13.5 7.77c0-.478-.074-.938-.213-1.37l-5.656 5.657A4.5 4.5 0 0013.5 7.769z"/><path d="M14.59 5.097l-1.22 1.22.067.042A8.568 8.568 0 0116.064 9a8.543 8.543 0 01-2.627 2.642 8.241 8.241 0 01-6.44 1.05l-1.352 1.35A9.91 9.91 0 009 14.625c3.925 0 7.328-2.286 9-5.625a10.284 10.284 0 00-3.41-3.903z"/></g><defs><clipPath id="clip0"><path fill="#fff" d="M0 0h18v18H0z"/></clipPath></defs></svg>