<svg width="18" height="18" fill="none" xmlns="http://www.w3.org/2000/svg"><g clip-path="url(#clip0)"><path d="M8.59.066a.235.235 0 01.326 0l1.528 1.452c.061.058.146.08.225.058l2.006-.55a.24.24 0 01.289.156l.702 2.022c.028.08.093.14.173.16l2.023.477a.25.25 0 01.185.279l-.285 2.128a.255.255 0 00.082.224L17.42 7.87c.095.084.113.23.04.335l-1.208 1.747a.258.258 0 00-.028.238l.769 1.996a.254.254 0 01-.116.316l-1.853.965a.25.25 0 00-.132.198l-.214 2.137a.245.245 0 01-.245.224l-2.074-.037a.24.24 0 00-.205.111l-1.149 1.79a.237.237 0 01-.317.08l-1.82-1.031a.235.235 0 00-.231 0l-1.82 1.031a.236.236 0 01-.317-.08L5.35 16.1a.24.24 0 00-.204-.111l-2.075.037a.245.245 0 01-.244-.224l-.214-2.137a.25.25 0 00-.132-.198l-1.853-.965a.254.254 0 01-.116-.316l.769-1.996a.258.258 0 00-.028-.238L.045 8.204a.256.256 0 01.04-.335L1.66 6.472a.255.255 0 00.082-.224L1.457 4.12a.25.25 0 01.186-.279l2.023-.478a.244.244 0 00.173-.159l.702-2.022a.24.24 0 01.289-.157l2.005.55c.08.022.165 0 .225-.057L8.59.066z" fill="#25D366"/><path d="M12.905 7.026l-4.882 4.755a.112.112 0 01-.156 0l-2.772-2.7a.105.105 0 010-.151l.673-.656a.112.112 0 01.156 0l2.021 1.968 4.131-4.023a.112.112 0 01.156 0l.673.656a.105.105 0 010 .151z" fill="#F8F8F8"/></g><defs><clipPath id="clip0"><path fill="#fff" d="M0 0h18v18H0z"/></clipPath></defs></svg>